<mxfile host="app.diagrams.net" modified="2024-02-28T21:13:53.903Z" agent="Mozilla/5.0 (Windows NT 10.0; Win64; x64) AppleWebKit/537.36 (KHTML, like Gecko) Chrome/122.0.0.0 Safari/537.36" etag="loKHlmsjbdOj-4nCBs0c" version="23.1.6" type="github" pages="3">
  <diagram name="Overview" id="rsdPZ2R_34K4D2moBG7r">
    <mxGraphModel dx="2368" dy="1811" grid="1" gridSize="10" guides="1" tooltips="1" connect="1" arrows="1" fold="1" page="1" pageScale="1" pageWidth="850" pageHeight="1100" math="0" shadow="0">
      <root>
        <mxCell id="0" />
        <mxCell id="1" parent="0" />
        <mxCell id="zQCuafONg3UHpQ3AOL7Y-16" style="edgeStyle=orthogonalEdgeStyle;rounded=0;orthogonalLoop=1;jettySize=auto;html=1;entryX=0.5;entryY=0;entryDx=0;entryDy=0;" edge="1" parent="1" source="zQCuafONg3UHpQ3AOL7Y-1" target="zQCuafONg3UHpQ3AOL7Y-2">
          <mxGeometry relative="1" as="geometry" />
        </mxCell>
        <mxCell id="zQCuafONg3UHpQ3AOL7Y-1" value="Execute" style="strokeWidth=2;html=1;shape=mxgraph.flowchart.start_1;whiteSpace=wrap;" vertex="1" parent="1">
          <mxGeometry x="26" y="-40" width="100" height="30" as="geometry" />
        </mxCell>
        <mxCell id="zQCuafONg3UHpQ3AOL7Y-2" value="Retrieve Settlement Instructions Messages" style="shape=parallelogram;html=1;strokeWidth=2;perimeter=parallelogramPerimeter;whiteSpace=wrap;rounded=1;arcSize=12;size=0.23;" vertex="1" parent="1">
          <mxGeometry x="-9" y="50" width="170" height="70" as="geometry" />
        </mxCell>
        <mxCell id="zQCuafONg3UHpQ3AOL7Y-6" style="edgeStyle=orthogonalEdgeStyle;rounded=0;orthogonalLoop=1;jettySize=auto;html=1;entryX=0;entryY=0.65;entryDx=0;entryDy=0;entryPerimeter=0;" edge="1" parent="1" source="zQCuafONg3UHpQ3AOL7Y-4" target="zQCuafONg3UHpQ3AOL7Y-7">
          <mxGeometry relative="1" as="geometry">
            <mxPoint x="360" y="250" as="targetPoint" />
          </mxGeometry>
        </mxCell>
        <mxCell id="zQCuafONg3UHpQ3AOL7Y-32" value="no" style="edgeLabel;html=1;align=center;verticalAlign=middle;resizable=0;points=[];" vertex="1" connectable="0" parent="zQCuafONg3UHpQ3AOL7Y-6">
          <mxGeometry x="-0.5965" y="-1" relative="1" as="geometry">
            <mxPoint as="offset" />
          </mxGeometry>
        </mxCell>
        <mxCell id="zQCuafONg3UHpQ3AOL7Y-52" value="" style="edgeStyle=orthogonalEdgeStyle;rounded=0;orthogonalLoop=1;jettySize=auto;html=1;" edge="1" parent="1" source="zQCuafONg3UHpQ3AOL7Y-4" target="zQCuafONg3UHpQ3AOL7Y-15">
          <mxGeometry relative="1" as="geometry" />
        </mxCell>
        <mxCell id="zQCuafONg3UHpQ3AOL7Y-53" value="yes" style="edgeLabel;html=1;align=center;verticalAlign=middle;resizable=0;points=[];" vertex="1" connectable="0" parent="zQCuafONg3UHpQ3AOL7Y-52">
          <mxGeometry x="-0.4" y="1" relative="1" as="geometry">
            <mxPoint as="offset" />
          </mxGeometry>
        </mxCell>
        <mxCell id="zQCuafONg3UHpQ3AOL7Y-4" value="Any Message?" style="strokeWidth=2;html=1;shape=mxgraph.flowchart.decision;whiteSpace=wrap;" vertex="1" parent="1">
          <mxGeometry x="26.25" y="170" width="100" height="100" as="geometry" />
        </mxCell>
        <mxCell id="zQCuafONg3UHpQ3AOL7Y-47" style="edgeStyle=orthogonalEdgeStyle;rounded=0;orthogonalLoop=1;jettySize=auto;html=1;" edge="1" parent="1" source="zQCuafONg3UHpQ3AOL7Y-7" target="zQCuafONg3UHpQ3AOL7Y-46">
          <mxGeometry relative="1" as="geometry" />
        </mxCell>
        <mxCell id="zQCuafONg3UHpQ3AOL7Y-7" value="There are no Settlement Instruction messages available" style="shape=tape;whiteSpace=wrap;html=1;strokeWidth=2;size=0.19" vertex="1" parent="1">
          <mxGeometry x="300" y="174" width="170" height="70" as="geometry" />
        </mxCell>
        <mxCell id="zQCuafONg3UHpQ3AOL7Y-55" style="edgeStyle=orthogonalEdgeStyle;rounded=0;orthogonalLoop=1;jettySize=auto;html=1;entryX=0.5;entryY=0;entryDx=0;entryDy=0;" edge="1" parent="1" source="zQCuafONg3UHpQ3AOL7Y-15" target="zQCuafONg3UHpQ3AOL7Y-48">
          <mxGeometry relative="1" as="geometry" />
        </mxCell>
        <mxCell id="zQCuafONg3UHpQ3AOL7Y-15" value="Process&lt;br&gt;SettlementInstructions" style="shape=parallelogram;html=1;strokeWidth=2;perimeter=parallelogramPerimeter;whiteSpace=wrap;rounded=1;arcSize=12;size=0.23;" vertex="1" parent="1">
          <mxGeometry x="-23.75" y="330" width="200" height="70" as="geometry" />
        </mxCell>
        <mxCell id="zQCuafONg3UHpQ3AOL7Y-17" style="edgeStyle=orthogonalEdgeStyle;rounded=0;orthogonalLoop=1;jettySize=auto;html=1;entryX=0.5;entryY=0.1;entryDx=0;entryDy=0;entryPerimeter=0;" edge="1" parent="1" source="zQCuafONg3UHpQ3AOL7Y-2" target="zQCuafONg3UHpQ3AOL7Y-4">
          <mxGeometry relative="1" as="geometry">
            <mxPoint x="74.05999999999995" y="170" as="targetPoint" />
          </mxGeometry>
        </mxCell>
        <mxCell id="zQCuafONg3UHpQ3AOL7Y-35" style="edgeStyle=orthogonalEdgeStyle;rounded=0;orthogonalLoop=1;jettySize=auto;html=1;" edge="1" parent="1" source="zQCuafONg3UHpQ3AOL7Y-28" target="zQCuafONg3UHpQ3AOL7Y-33">
          <mxGeometry relative="1" as="geometry" />
        </mxCell>
        <mxCell id="zQCuafONg3UHpQ3AOL7Y-28" value="Submit Credit&lt;br&gt;instructions" style="shape=parallelogram;html=1;strokeWidth=2;perimeter=parallelogramPerimeter;whiteSpace=wrap;rounded=1;arcSize=12;size=0.23;" vertex="1" parent="1">
          <mxGeometry x="10" y="730" width="135" height="60" as="geometry" />
        </mxCell>
        <mxCell id="zQCuafONg3UHpQ3AOL7Y-33" value="Check if Funding&amp;nbsp;&lt;br&gt;is required&lt;br&gt;i.e. Credits &amp;gt; Debits" style="strokeWidth=2;html=1;shape=mxgraph.flowchart.decision;whiteSpace=wrap;" vertex="1" parent="1">
          <mxGeometry x="-23" y="841" width="200" height="109" as="geometry" />
        </mxCell>
        <mxCell id="zQCuafONg3UHpQ3AOL7Y-66" value="" style="edgeStyle=orthogonalEdgeStyle;rounded=0;orthogonalLoop=1;jettySize=auto;html=1;" edge="1" parent="1" source="zQCuafONg3UHpQ3AOL7Y-36" target="zQCuafONg3UHpQ3AOL7Y-41">
          <mxGeometry relative="1" as="geometry" />
        </mxCell>
        <mxCell id="zQCuafONg3UHpQ3AOL7Y-67" value="yes" style="edgeLabel;html=1;align=center;verticalAlign=middle;resizable=0;points=[];" vertex="1" connectable="0" parent="zQCuafONg3UHpQ3AOL7Y-66">
          <mxGeometry x="-0.2048" y="1" relative="1" as="geometry">
            <mxPoint as="offset" />
          </mxGeometry>
        </mxCell>
        <mxCell id="zQCuafONg3UHpQ3AOL7Y-79" style="edgeStyle=orthogonalEdgeStyle;rounded=0;orthogonalLoop=1;jettySize=auto;html=1;entryX=0.991;entryY=0.167;entryDx=0;entryDy=0;entryPerimeter=0;" edge="1" parent="1" source="zQCuafONg3UHpQ3AOL7Y-36" target="zQCuafONg3UHpQ3AOL7Y-72">
          <mxGeometry relative="1" as="geometry">
            <mxPoint x="240" y="921" as="targetPoint" />
            <Array as="points">
              <mxPoint x="241" y="1188" />
              <mxPoint x="241" y="1043" />
            </Array>
          </mxGeometry>
        </mxCell>
        <mxCell id="zQCuafONg3UHpQ3AOL7Y-80" value="no" style="edgeLabel;html=1;align=center;verticalAlign=middle;resizable=0;points=[];" vertex="1" connectable="0" parent="zQCuafONg3UHpQ3AOL7Y-79">
          <mxGeometry x="-0.7351" y="-1" relative="1" as="geometry">
            <mxPoint as="offset" />
          </mxGeometry>
        </mxCell>
        <mxCell id="zQCuafONg3UHpQ3AOL7Y-36" value="Check Funding&amp;nbsp;&lt;br&gt;Message&lt;br&gt;received" style="strokeWidth=2;html=1;shape=mxgraph.flowchart.decision;whiteSpace=wrap;" vertex="1" parent="1">
          <mxGeometry x="6" y="1139" width="142.5" height="100" as="geometry" />
        </mxCell>
        <mxCell id="zQCuafONg3UHpQ3AOL7Y-64" value="" style="edgeStyle=orthogonalEdgeStyle;rounded=0;orthogonalLoop=1;jettySize=auto;html=1;" edge="1" parent="1" source="zQCuafONg3UHpQ3AOL7Y-41" target="zQCuafONg3UHpQ3AOL7Y-44">
          <mxGeometry relative="1" as="geometry" />
        </mxCell>
        <mxCell id="zQCuafONg3UHpQ3AOL7Y-41" value="Release (submit)&lt;br&gt;Debit instructions" style="shape=parallelogram;html=1;strokeWidth=2;perimeter=parallelogramPerimeter;whiteSpace=wrap;rounded=1;arcSize=12;size=0.23;" vertex="1" parent="1">
          <mxGeometry x="-9" y="1289" width="174" height="77" as="geometry" />
        </mxCell>
        <mxCell id="zQCuafONg3UHpQ3AOL7Y-44" value="End Status:Pass" style="strokeWidth=2;html=1;shape=mxgraph.flowchart.terminator;whiteSpace=wrap;" vertex="1" parent="1">
          <mxGeometry x="28" y="1429" width="100" height="60" as="geometry" />
        </mxCell>
        <mxCell id="zQCuafONg3UHpQ3AOL7Y-46" value="End Status:Fail" style="strokeWidth=2;html=1;shape=mxgraph.flowchart.terminator;whiteSpace=wrap;" vertex="1" parent="1">
          <mxGeometry x="650" y="1300" width="100" height="60" as="geometry" />
        </mxCell>
        <mxCell id="zQCuafONg3UHpQ3AOL7Y-87" value="" style="edgeStyle=orthogonalEdgeStyle;rounded=0;orthogonalLoop=1;jettySize=auto;html=1;" edge="1" parent="1" source="zQCuafONg3UHpQ3AOL7Y-48" target="zQCuafONg3UHpQ3AOL7Y-81">
          <mxGeometry relative="1" as="geometry" />
        </mxCell>
        <mxCell id="zQCuafONg3UHpQ3AOL7Y-48" value="Separate &lt;br&gt;Credits from&amp;nbsp;Debits" style="shape=parallelogram;html=1;strokeWidth=2;perimeter=parallelogramPerimeter;whiteSpace=wrap;rounded=1;arcSize=12;size=0.23;" vertex="1" parent="1">
          <mxGeometry x="-9" y="484" width="172" height="60" as="geometry" />
        </mxCell>
        <mxCell id="zQCuafONg3UHpQ3AOL7Y-77" style="edgeStyle=orthogonalEdgeStyle;rounded=0;orthogonalLoop=1;jettySize=auto;html=1;" edge="1" parent="1" source="zQCuafONg3UHpQ3AOL7Y-72" target="zQCuafONg3UHpQ3AOL7Y-36">
          <mxGeometry relative="1" as="geometry" />
        </mxCell>
        <mxCell id="zQCuafONg3UHpQ3AOL7Y-72" value="Wait for Funding &lt;br&gt;Message" style="shape=parallelogram;html=1;strokeWidth=2;perimeter=parallelogramPerimeter;whiteSpace=wrap;rounded=1;arcSize=12;size=0.23;" vertex="1" parent="1">
          <mxGeometry y="1035" width="154" height="54" as="geometry" />
        </mxCell>
        <mxCell id="zQCuafONg3UHpQ3AOL7Y-76" style="edgeStyle=orthogonalEdgeStyle;rounded=0;orthogonalLoop=1;jettySize=auto;html=1;entryX=0.506;entryY=-0.1;entryDx=0;entryDy=0;entryPerimeter=0;" edge="1" parent="1" source="zQCuafONg3UHpQ3AOL7Y-33" target="zQCuafONg3UHpQ3AOL7Y-72">
          <mxGeometry relative="1" as="geometry" />
        </mxCell>
        <mxCell id="zQCuafONg3UHpQ3AOL7Y-93" value="Funding Required" style="edgeLabel;html=1;align=center;verticalAlign=middle;resizable=0;points=[];" vertex="1" connectable="0" parent="zQCuafONg3UHpQ3AOL7Y-76">
          <mxGeometry x="-0.6479" relative="1" as="geometry">
            <mxPoint as="offset" />
          </mxGeometry>
        </mxCell>
        <mxCell id="zQCuafONg3UHpQ3AOL7Y-88" value="" style="edgeStyle=orthogonalEdgeStyle;rounded=0;orthogonalLoop=1;jettySize=auto;html=1;" edge="1" parent="1" source="zQCuafONg3UHpQ3AOL7Y-81" target="zQCuafONg3UHpQ3AOL7Y-28">
          <mxGeometry relative="1" as="geometry" />
        </mxCell>
        <mxCell id="zQCuafONg3UHpQ3AOL7Y-89" value="credits" style="edgeLabel;html=1;align=center;verticalAlign=middle;resizable=0;points=[];" vertex="1" connectable="0" parent="zQCuafONg3UHpQ3AOL7Y-88">
          <mxGeometry x="-0.5383" y="1" relative="1" as="geometry">
            <mxPoint as="offset" />
          </mxGeometry>
        </mxCell>
        <mxCell id="zQCuafONg3UHpQ3AOL7Y-91" value="" style="edgeStyle=orthogonalEdgeStyle;rounded=0;orthogonalLoop=1;jettySize=auto;html=1;entryX=0;entryY=0.5;entryDx=0;entryDy=0;" edge="1" parent="1" source="zQCuafONg3UHpQ3AOL7Y-81" target="zQCuafONg3UHpQ3AOL7Y-92">
          <mxGeometry relative="1" as="geometry">
            <mxPoint x="235.25" y="640" as="targetPoint" />
          </mxGeometry>
        </mxCell>
        <mxCell id="zQCuafONg3UHpQ3AOL7Y-94" value="debits" style="edgeLabel;html=1;align=center;verticalAlign=middle;resizable=0;points=[];" vertex="1" connectable="0" parent="zQCuafONg3UHpQ3AOL7Y-91">
          <mxGeometry x="-0.5885" relative="1" as="geometry">
            <mxPoint as="offset" />
          </mxGeometry>
        </mxCell>
        <mxCell id="zQCuafONg3UHpQ3AOL7Y-81" value="Check&lt;br&gt;Credit&lt;br&gt;Instructions" style="strokeWidth=2;html=1;shape=mxgraph.flowchart.decision;whiteSpace=wrap;" vertex="1" parent="1">
          <mxGeometry x="-2.75" y="600" width="160" height="80" as="geometry" />
        </mxCell>
        <mxCell id="zQCuafONg3UHpQ3AOL7Y-92" value="Hold&amp;nbsp; Debit&lt;br&gt;Instructions" style="shape=parallelogram;html=1;strokeWidth=2;perimeter=parallelogramPerimeter;whiteSpace=wrap;rounded=1;arcSize=12;size=0.23;" vertex="1" parent="1">
          <mxGeometry x="313" y="610" width="150" height="60" as="geometry" />
        </mxCell>
      </root>
    </mxGraphModel>
  </diagram>
  <diagram id="9gz5W8VeIskbhB9NFHHX" name="Detailed">
    <mxGraphModel grid="1" page="1" gridSize="10" guides="1" tooltips="1" connect="1" arrows="1" fold="1" pageScale="1" pageWidth="850" pageHeight="1100" math="0" shadow="0">
      <root>
        <mxCell id="0" />
        <mxCell id="1" parent="0" />
        <mxCell id="kWRbiz1iWP3_9c4-U1YJ-1" style="edgeStyle=orthogonalEdgeStyle;rounded=0;orthogonalLoop=1;jettySize=auto;html=1;entryX=0.5;entryY=0;entryDx=0;entryDy=0;" edge="1" parent="1" source="kWRbiz1iWP3_9c4-U1YJ-2" target="kWRbiz1iWP3_9c4-U1YJ-3">
          <mxGeometry relative="1" as="geometry" />
        </mxCell>
        <mxCell id="kWRbiz1iWP3_9c4-U1YJ-2" value="Execute" style="strokeWidth=2;html=1;shape=mxgraph.flowchart.start_1;whiteSpace=wrap;" vertex="1" parent="1">
          <mxGeometry x="-780.25" y="-920" width="100" height="30" as="geometry" />
        </mxCell>
        <mxCell id="kWRbiz1iWP3_9c4-U1YJ-3" value="Retrieve Settlement Instructions Messages" style="shape=parallelogram;html=1;strokeWidth=2;perimeter=parallelogramPerimeter;whiteSpace=wrap;rounded=1;arcSize=12;size=0.23;" vertex="1" parent="1">
          <mxGeometry x="-815.25" y="-830" width="170" height="70" as="geometry" />
        </mxCell>
        <mxCell id="kWRbiz1iWP3_9c4-U1YJ-4" style="edgeStyle=orthogonalEdgeStyle;rounded=0;orthogonalLoop=1;jettySize=auto;html=1;entryX=0;entryY=0.65;entryDx=0;entryDy=0;entryPerimeter=0;" edge="1" parent="1" source="kWRbiz1iWP3_9c4-U1YJ-8" target="kWRbiz1iWP3_9c4-U1YJ-10">
          <mxGeometry relative="1" as="geometry">
            <mxPoint x="-446.25" y="-630" as="targetPoint" />
          </mxGeometry>
        </mxCell>
        <mxCell id="kWRbiz1iWP3_9c4-U1YJ-5" value="no" style="edgeLabel;html=1;align=center;verticalAlign=middle;resizable=0;points=[];" vertex="1" connectable="0" parent="kWRbiz1iWP3_9c4-U1YJ-4">
          <mxGeometry x="-0.5965" y="-1" relative="1" as="geometry">
            <mxPoint as="offset" />
          </mxGeometry>
        </mxCell>
        <mxCell id="kWRbiz1iWP3_9c4-U1YJ-6" value="" style="edgeStyle=orthogonalEdgeStyle;rounded=0;orthogonalLoop=1;jettySize=auto;html=1;" edge="1" parent="1" source="kWRbiz1iWP3_9c4-U1YJ-8" target="kWRbiz1iWP3_9c4-U1YJ-12">
          <mxGeometry relative="1" as="geometry" />
        </mxCell>
        <mxCell id="kWRbiz1iWP3_9c4-U1YJ-7" value="yes" style="edgeLabel;html=1;align=center;verticalAlign=middle;resizable=0;points=[];" vertex="1" connectable="0" parent="kWRbiz1iWP3_9c4-U1YJ-6">
          <mxGeometry x="-0.4" y="1" relative="1" as="geometry">
            <mxPoint as="offset" />
          </mxGeometry>
        </mxCell>
        <mxCell id="kWRbiz1iWP3_9c4-U1YJ-8" value="Any Message?" style="strokeWidth=2;html=1;shape=mxgraph.flowchart.decision;whiteSpace=wrap;" vertex="1" parent="1">
          <mxGeometry x="-780" y="-710" width="100" height="100" as="geometry" />
        </mxCell>
        <mxCell id="kWRbiz1iWP3_9c4-U1YJ-9" style="edgeStyle=orthogonalEdgeStyle;rounded=0;orthogonalLoop=1;jettySize=auto;html=1;" edge="1" parent="1" source="kWRbiz1iWP3_9c4-U1YJ-10" target="kWRbiz1iWP3_9c4-U1YJ-25">
          <mxGeometry relative="1" as="geometry" />
        </mxCell>
        <mxCell id="kWRbiz1iWP3_9c4-U1YJ-10" value="There are no Settlement Instruction messages available" style="shape=tape;whiteSpace=wrap;html=1;strokeWidth=2;size=0.19" vertex="1" parent="1">
          <mxGeometry x="-326.25" y="-706" width="170" height="70" as="geometry" />
        </mxCell>
        <mxCell id="kWRbiz1iWP3_9c4-U1YJ-11" style="edgeStyle=orthogonalEdgeStyle;rounded=0;orthogonalLoop=1;jettySize=auto;html=1;entryX=0.5;entryY=0;entryDx=0;entryDy=0;" edge="1" parent="1" source="kWRbiz1iWP3_9c4-U1YJ-12" target="kWRbiz1iWP3_9c4-U1YJ-27">
          <mxGeometry relative="1" as="geometry" />
        </mxCell>
        <mxCell id="kWRbiz1iWP3_9c4-U1YJ-12" value="Process&lt;br&gt;SettlementInstructions" style="shape=parallelogram;html=1;strokeWidth=2;perimeter=parallelogramPerimeter;whiteSpace=wrap;rounded=1;arcSize=12;size=0.23;" vertex="1" parent="1">
          <mxGeometry x="-830" y="-550" width="200" height="70" as="geometry" />
        </mxCell>
        <mxCell id="kWRbiz1iWP3_9c4-U1YJ-13" style="edgeStyle=orthogonalEdgeStyle;rounded=0;orthogonalLoop=1;jettySize=auto;html=1;entryX=0.5;entryY=0.1;entryDx=0;entryDy=0;entryPerimeter=0;" edge="1" parent="1" source="kWRbiz1iWP3_9c4-U1YJ-3" target="kWRbiz1iWP3_9c4-U1YJ-8">
          <mxGeometry relative="1" as="geometry">
            <mxPoint x="-732.19" y="-710" as="targetPoint" />
          </mxGeometry>
        </mxCell>
        <mxCell id="kWRbiz1iWP3_9c4-U1YJ-14" style="edgeStyle=orthogonalEdgeStyle;rounded=0;orthogonalLoop=1;jettySize=auto;html=1;" edge="1" parent="1" source="kWRbiz1iWP3_9c4-U1YJ-15" target="kWRbiz1iWP3_9c4-U1YJ-16">
          <mxGeometry relative="1" as="geometry" />
        </mxCell>
        <mxCell id="kWRbiz1iWP3_9c4-U1YJ-15" value="Submit Credit&lt;br&gt;instructions" style="shape=parallelogram;html=1;strokeWidth=2;perimeter=parallelogramPerimeter;whiteSpace=wrap;rounded=1;arcSize=12;size=0.23;" vertex="1" parent="1">
          <mxGeometry x="-796.25" y="-150" width="135" height="60" as="geometry" />
        </mxCell>
        <mxCell id="kWRbiz1iWP3_9c4-U1YJ-86" style="edgeStyle=orthogonalEdgeStyle;rounded=0;orthogonalLoop=1;jettySize=auto;html=1;" edge="1" parent="1" source="kWRbiz1iWP3_9c4-U1YJ-16" target="kWRbiz1iWP3_9c4-U1YJ-55">
          <mxGeometry relative="1" as="geometry">
            <mxPoint x="-410" y="15.5" as="targetPoint" />
          </mxGeometry>
        </mxCell>
        <mxCell id="kWRbiz1iWP3_9c4-U1YJ-87" value="no" style="edgeLabel;html=1;align=center;verticalAlign=middle;resizable=0;points=[];" vertex="1" connectable="0" parent="kWRbiz1iWP3_9c4-U1YJ-86">
          <mxGeometry x="-0.7801" y="1" relative="1" as="geometry">
            <mxPoint x="-1" as="offset" />
          </mxGeometry>
        </mxCell>
        <mxCell id="kWRbiz1iWP3_9c4-U1YJ-16" value="Check if Funding&amp;nbsp;&lt;br&gt;is required&lt;br&gt;i.e. Credits &amp;gt; Debits" style="strokeWidth=2;html=1;shape=mxgraph.flowchart.decision;whiteSpace=wrap;" vertex="1" parent="1">
          <mxGeometry x="-829.25" y="-39" width="200" height="109" as="geometry" />
        </mxCell>
        <mxCell id="kWRbiz1iWP3_9c4-U1YJ-43" value="" style="edgeStyle=orthogonalEdgeStyle;rounded=0;orthogonalLoop=1;jettySize=auto;html=1;" edge="1" parent="1" source="kWRbiz1iWP3_9c4-U1YJ-21" target="kWRbiz1iWP3_9c4-U1YJ-29">
          <mxGeometry relative="1" as="geometry">
            <mxPoint x="-1000" y="170" as="targetPoint" />
            <Array as="points">
              <mxPoint x="-850" y="330" />
              <mxPoint x="-850" y="170" />
            </Array>
          </mxGeometry>
        </mxCell>
        <mxCell id="kWRbiz1iWP3_9c4-U1YJ-44" value="no" style="edgeLabel;html=1;align=center;verticalAlign=middle;resizable=0;points=[];" vertex="1" connectable="0" parent="kWRbiz1iWP3_9c4-U1YJ-43">
          <mxGeometry x="-0.6127" y="-2" relative="1" as="geometry">
            <mxPoint y="-1" as="offset" />
          </mxGeometry>
        </mxCell>
        <mxCell id="kWRbiz1iWP3_9c4-U1YJ-53" style="edgeStyle=orthogonalEdgeStyle;rounded=0;orthogonalLoop=1;jettySize=auto;html=1;entryX=0.078;entryY=0.569;entryDx=0;entryDy=0;entryPerimeter=0;" edge="1" parent="1" source="kWRbiz1iWP3_9c4-U1YJ-21" target="kWRbiz1iWP3_9c4-U1YJ-55">
          <mxGeometry relative="1" as="geometry">
            <mxPoint x="-581.0000000000005" y="330" as="targetPoint" />
          </mxGeometry>
        </mxCell>
        <mxCell id="kWRbiz1iWP3_9c4-U1YJ-84" value="yes" style="edgeLabel;html=1;align=center;verticalAlign=middle;resizable=0;points=[];" vertex="1" connectable="0" parent="kWRbiz1iWP3_9c4-U1YJ-53">
          <mxGeometry x="-0.4369" y="-1" relative="1" as="geometry">
            <mxPoint as="offset" />
          </mxGeometry>
        </mxCell>
        <mxCell id="kWRbiz1iWP3_9c4-U1YJ-21" value="Check Funding&amp;nbsp;&lt;br&gt;Message&lt;br&gt;received" style="strokeWidth=2;html=1;shape=mxgraph.flowchart.decision;whiteSpace=wrap;" vertex="1" parent="1">
          <mxGeometry x="-800.25" y="280" width="142.5" height="100" as="geometry" />
        </mxCell>
        <mxCell id="kWRbiz1iWP3_9c4-U1YJ-23" value="Release (submit)&lt;br&gt;Debit instructions" style="shape=parallelogram;html=1;strokeWidth=2;perimeter=parallelogramPerimeter;whiteSpace=wrap;rounded=1;arcSize=12;size=0.23;" vertex="1" parent="1">
          <mxGeometry x="-261" y="436" width="250" height="100" as="geometry" />
        </mxCell>
        <mxCell id="kWRbiz1iWP3_9c4-U1YJ-24" value="End&lt;br&gt;&amp;nbsp;Status:Pass" style="strokeWidth=2;html=1;shape=mxgraph.flowchart.terminator;whiteSpace=wrap;" vertex="1" parent="1">
          <mxGeometry x="-193" y="680" width="116" height="60" as="geometry" />
        </mxCell>
        <mxCell id="kWRbiz1iWP3_9c4-U1YJ-25" value="End Status:FailedContinue" style="strokeWidth=2;html=1;shape=mxgraph.flowchart.terminator;whiteSpace=wrap;" vertex="1" parent="1">
          <mxGeometry x="203" y="680" width="130" height="60" as="geometry" />
        </mxCell>
        <mxCell id="kWRbiz1iWP3_9c4-U1YJ-26" value="" style="edgeStyle=orthogonalEdgeStyle;rounded=0;orthogonalLoop=1;jettySize=auto;html=1;" edge="1" parent="1" source="kWRbiz1iWP3_9c4-U1YJ-27" target="kWRbiz1iWP3_9c4-U1YJ-36">
          <mxGeometry relative="1" as="geometry" />
        </mxCell>
        <mxCell id="kWRbiz1iWP3_9c4-U1YJ-27" value="Separate &lt;br&gt;Credits from&amp;nbsp;Debits" style="shape=parallelogram;html=1;strokeWidth=2;perimeter=parallelogramPerimeter;whiteSpace=wrap;rounded=1;arcSize=12;size=0.23;" vertex="1" parent="1">
          <mxGeometry x="-815.25" y="-396" width="172" height="60" as="geometry" />
        </mxCell>
        <mxCell id="kWRbiz1iWP3_9c4-U1YJ-28" style="edgeStyle=orthogonalEdgeStyle;rounded=0;orthogonalLoop=1;jettySize=auto;html=1;" edge="1" parent="1" source="kWRbiz1iWP3_9c4-U1YJ-29" target="kWRbiz1iWP3_9c4-U1YJ-21">
          <mxGeometry relative="1" as="geometry" />
        </mxCell>
        <mxCell id="kWRbiz1iWP3_9c4-U1YJ-29" value="Wait for Funding &lt;br&gt;Message" style="shape=parallelogram;html=1;strokeWidth=2;perimeter=parallelogramPerimeter;whiteSpace=wrap;rounded=1;arcSize=12;size=0.23;" vertex="1" parent="1">
          <mxGeometry x="-806.25" y="155" width="154" height="54" as="geometry" />
        </mxCell>
        <mxCell id="kWRbiz1iWP3_9c4-U1YJ-30" style="edgeStyle=orthogonalEdgeStyle;rounded=0;orthogonalLoop=1;jettySize=auto;html=1;entryX=0.506;entryY=-0.1;entryDx=0;entryDy=0;entryPerimeter=0;" edge="1" parent="1" source="kWRbiz1iWP3_9c4-U1YJ-16" target="kWRbiz1iWP3_9c4-U1YJ-29">
          <mxGeometry relative="1" as="geometry" />
        </mxCell>
        <mxCell id="kWRbiz1iWP3_9c4-U1YJ-31" value="yes" style="edgeLabel;html=1;align=center;verticalAlign=middle;resizable=0;points=[];" vertex="1" connectable="0" parent="kWRbiz1iWP3_9c4-U1YJ-30">
          <mxGeometry x="-0.6479" relative="1" as="geometry">
            <mxPoint as="offset" />
          </mxGeometry>
        </mxCell>
        <mxCell id="kWRbiz1iWP3_9c4-U1YJ-32" value="" style="edgeStyle=orthogonalEdgeStyle;rounded=0;orthogonalLoop=1;jettySize=auto;html=1;" edge="1" parent="1" source="kWRbiz1iWP3_9c4-U1YJ-36" target="kWRbiz1iWP3_9c4-U1YJ-15">
          <mxGeometry relative="1" as="geometry" />
        </mxCell>
        <mxCell id="kWRbiz1iWP3_9c4-U1YJ-33" value="credits" style="edgeLabel;html=1;align=center;verticalAlign=middle;resizable=0;points=[];" vertex="1" connectable="0" parent="kWRbiz1iWP3_9c4-U1YJ-32">
          <mxGeometry x="-0.5383" y="1" relative="1" as="geometry">
            <mxPoint as="offset" />
          </mxGeometry>
        </mxCell>
        <mxCell id="kWRbiz1iWP3_9c4-U1YJ-34" value="" style="edgeStyle=orthogonalEdgeStyle;rounded=0;orthogonalLoop=1;jettySize=auto;html=1;entryX=0;entryY=0.333;entryDx=0;entryDy=0;entryPerimeter=0;" edge="1" parent="1" source="kWRbiz1iWP3_9c4-U1YJ-36" target="kWRbiz1iWP3_9c4-U1YJ-89">
          <mxGeometry relative="1" as="geometry">
            <mxPoint x="-330" y="-240" as="targetPoint" />
          </mxGeometry>
        </mxCell>
        <mxCell id="kWRbiz1iWP3_9c4-U1YJ-35" value="debits" style="edgeLabel;html=1;align=center;verticalAlign=middle;resizable=0;points=[];" vertex="1" connectable="0" parent="kWRbiz1iWP3_9c4-U1YJ-34">
          <mxGeometry x="-0.5885" relative="1" as="geometry">
            <mxPoint as="offset" />
          </mxGeometry>
        </mxCell>
        <mxCell id="kWRbiz1iWP3_9c4-U1YJ-36" value="Check&lt;br&gt;Credit&lt;br&gt;Instructions" style="strokeWidth=2;html=1;shape=mxgraph.flowchart.decision;whiteSpace=wrap;" vertex="1" parent="1">
          <mxGeometry x="-809" y="-280" width="160" height="80" as="geometry" />
        </mxCell>
        <mxCell id="kWRbiz1iWP3_9c4-U1YJ-63" value="" style="edgeStyle=orthogonalEdgeStyle;rounded=0;orthogonalLoop=1;jettySize=auto;html=1;" edge="1" parent="1" source="kWRbiz1iWP3_9c4-U1YJ-55" target="kWRbiz1iWP3_9c4-U1YJ-62">
          <mxGeometry relative="1" as="geometry" />
        </mxCell>
        <mxCell id="kWRbiz1iWP3_9c4-U1YJ-55" value="Wait for Credit&lt;br&gt;Payment Notifications" style="shape=parallelogram;html=1;strokeWidth=2;perimeter=parallelogramPerimeter;whiteSpace=wrap;rounded=1;arcSize=12;size=0.23;" vertex="1" parent="1">
          <mxGeometry x="-590" y="284" width="270" height="80" as="geometry" />
        </mxCell>
        <mxCell id="kWRbiz1iWP3_9c4-U1YJ-77" style="edgeStyle=orthogonalEdgeStyle;rounded=0;orthogonalLoop=1;jettySize=auto;html=1;entryX=0.063;entryY=0.994;entryDx=0;entryDy=0;exitX=0;exitY=0.5;exitDx=0;exitDy=0;entryPerimeter=0;" edge="1" parent="1" source="kWRbiz1iWP3_9c4-U1YJ-62" target="kWRbiz1iWP3_9c4-U1YJ-55">
          <mxGeometry relative="1" as="geometry">
            <Array as="points">
              <mxPoint x="-572" y="485" />
              <mxPoint x="-572" y="364" />
            </Array>
          </mxGeometry>
        </mxCell>
        <mxCell id="kWRbiz1iWP3_9c4-U1YJ-78" value="no" style="edgeLabel;html=1;align=center;verticalAlign=middle;resizable=0;points=[];" vertex="1" connectable="0" parent="kWRbiz1iWP3_9c4-U1YJ-77">
          <mxGeometry x="-0.7492" y="2" relative="1" as="geometry">
            <mxPoint x="1" y="-1" as="offset" />
          </mxGeometry>
        </mxCell>
        <mxCell id="kWRbiz1iWP3_9c4-U1YJ-62" value="Check All&lt;br style=&quot;border-color: var(--border-color);&quot;&gt;Credit Notifications&lt;br style=&quot;border-color: var(--border-color);&quot;&gt;Received" style="rhombus;whiteSpace=wrap;html=1;strokeWidth=2;rounded=1;arcSize=12;" vertex="1" parent="1">
          <mxGeometry x="-532.5" y="440" width="155" height="90" as="geometry" />
        </mxCell>
        <mxCell id="kWRbiz1iWP3_9c4-U1YJ-66" style="edgeStyle=orthogonalEdgeStyle;rounded=0;orthogonalLoop=1;jettySize=auto;html=1;" edge="1" parent="1" source="kWRbiz1iWP3_9c4-U1YJ-62" target="kWRbiz1iWP3_9c4-U1YJ-23">
          <mxGeometry relative="1" as="geometry" />
        </mxCell>
        <mxCell id="kWRbiz1iWP3_9c4-U1YJ-67" value="yes" style="edgeLabel;html=1;align=center;verticalAlign=middle;resizable=0;points=[];" vertex="1" connectable="0" parent="kWRbiz1iWP3_9c4-U1YJ-66">
          <mxGeometry x="-0.5629" y="3" relative="1" as="geometry">
            <mxPoint as="offset" />
          </mxGeometry>
        </mxCell>
        <mxCell id="kWRbiz1iWP3_9c4-U1YJ-79" style="edgeStyle=orthogonalEdgeStyle;rounded=0;orthogonalLoop=1;jettySize=auto;html=1;entryX=0.5;entryY=0;entryDx=0;entryDy=0;entryPerimeter=0;" edge="1" parent="1" source="kWRbiz1iWP3_9c4-U1YJ-23" target="kWRbiz1iWP3_9c4-U1YJ-24">
          <mxGeometry relative="1" as="geometry" />
        </mxCell>
        <mxCell id="kWRbiz1iWP3_9c4-U1YJ-89" value="Hold Debit&lt;br style=&quot;border-color: var(--border-color);&quot;&gt;Instructions" style="strokeWidth=2;html=1;shape=mxgraph.flowchart.delay;whiteSpace=wrap;" vertex="1" parent="1">
          <mxGeometry x="-256.25" y="-260" width="100" height="60" as="geometry" />
        </mxCell>
      </root>
    </mxGraphModel>
  </diagram>
  <diagram id="vanRMHhSbcppKjdAQNjE" name="Threshold">
    <mxGraphModel dx="3850" dy="2107" grid="1" gridSize="10" guides="1" tooltips="1" connect="1" arrows="1" fold="1" page="1" pageScale="1" pageWidth="850" pageHeight="1100" math="0" shadow="0">
      <root>
        <mxCell id="0" />
        <mxCell id="1" parent="0" />
        <mxCell id="IoMad7SnP3hHhk6PhJhq-1" style="edgeStyle=orthogonalEdgeStyle;rounded=0;orthogonalLoop=1;jettySize=auto;html=1;entryX=0.5;entryY=0;entryDx=0;entryDy=0;" edge="1" parent="1" source="IoMad7SnP3hHhk6PhJhq-2" target="IoMad7SnP3hHhk6PhJhq-3">
          <mxGeometry relative="1" as="geometry" />
        </mxCell>
        <mxCell id="IoMad7SnP3hHhk6PhJhq-2" value="Execute" style="strokeWidth=2;html=1;shape=mxgraph.flowchart.start_1;whiteSpace=wrap;" vertex="1" parent="1">
          <mxGeometry x="-780.25" y="-920" width="100" height="30" as="geometry" />
        </mxCell>
        <mxCell id="IoMad7SnP3hHhk6PhJhq-3" value="Retrieve Settlement Instructions Messages" style="shape=parallelogram;html=1;strokeWidth=2;perimeter=parallelogramPerimeter;whiteSpace=wrap;rounded=1;arcSize=12;size=0.23;" vertex="1" parent="1">
          <mxGeometry x="-815.25" y="-830" width="170" height="70" as="geometry" />
        </mxCell>
        <mxCell id="IoMad7SnP3hHhk6PhJhq-4" style="edgeStyle=orthogonalEdgeStyle;rounded=0;orthogonalLoop=1;jettySize=auto;html=1;entryX=0;entryY=0.65;entryDx=0;entryDy=0;entryPerimeter=0;" edge="1" parent="1" source="IoMad7SnP3hHhk6PhJhq-8" target="IoMad7SnP3hHhk6PhJhq-10">
          <mxGeometry relative="1" as="geometry">
            <mxPoint x="-446.25" y="-630" as="targetPoint" />
          </mxGeometry>
        </mxCell>
        <mxCell id="IoMad7SnP3hHhk6PhJhq-5" value="no" style="edgeLabel;html=1;align=center;verticalAlign=middle;resizable=0;points=[];" vertex="1" connectable="0" parent="IoMad7SnP3hHhk6PhJhq-4">
          <mxGeometry x="-0.5965" y="-1" relative="1" as="geometry">
            <mxPoint as="offset" />
          </mxGeometry>
        </mxCell>
        <mxCell id="IoMad7SnP3hHhk6PhJhq-6" value="" style="edgeStyle=orthogonalEdgeStyle;rounded=0;orthogonalLoop=1;jettySize=auto;html=1;" edge="1" parent="1" source="IoMad7SnP3hHhk6PhJhq-8" target="IoMad7SnP3hHhk6PhJhq-12">
          <mxGeometry relative="1" as="geometry" />
        </mxCell>
        <mxCell id="IoMad7SnP3hHhk6PhJhq-7" value="yes" style="edgeLabel;html=1;align=center;verticalAlign=middle;resizable=0;points=[];" vertex="1" connectable="0" parent="IoMad7SnP3hHhk6PhJhq-6">
          <mxGeometry x="-0.4" y="1" relative="1" as="geometry">
            <mxPoint as="offset" />
          </mxGeometry>
        </mxCell>
        <mxCell id="IoMad7SnP3hHhk6PhJhq-8" value="Any Message?" style="strokeWidth=2;html=1;shape=mxgraph.flowchart.decision;whiteSpace=wrap;" vertex="1" parent="1">
          <mxGeometry x="-780" y="-710" width="100" height="100" as="geometry" />
        </mxCell>
        <mxCell id="IoMad7SnP3hHhk6PhJhq-9" style="edgeStyle=orthogonalEdgeStyle;rounded=0;orthogonalLoop=1;jettySize=auto;html=1;" edge="1" parent="1" source="IoMad7SnP3hHhk6PhJhq-10" target="IoMad7SnP3hHhk6PhJhq-26">
          <mxGeometry relative="1" as="geometry" />
        </mxCell>
        <mxCell id="IoMad7SnP3hHhk6PhJhq-10" value="There are no Settlement Instruction messages available" style="shape=tape;whiteSpace=wrap;html=1;strokeWidth=2;size=0.19" vertex="1" parent="1">
          <mxGeometry x="-326.25" y="-706" width="170" height="70" as="geometry" />
        </mxCell>
        <mxCell id="IoMad7SnP3hHhk6PhJhq-11" style="edgeStyle=orthogonalEdgeStyle;rounded=0;orthogonalLoop=1;jettySize=auto;html=1;entryX=0.5;entryY=0;entryDx=0;entryDy=0;" edge="1" parent="1" source="IoMad7SnP3hHhk6PhJhq-12" target="IoMad7SnP3hHhk6PhJhq-28">
          <mxGeometry relative="1" as="geometry" />
        </mxCell>
        <mxCell id="IoMad7SnP3hHhk6PhJhq-12" value="Process&lt;br&gt;SettlementInstructions" style="shape=parallelogram;html=1;strokeWidth=2;perimeter=parallelogramPerimeter;whiteSpace=wrap;rounded=1;arcSize=12;size=0.23;" vertex="1" parent="1">
          <mxGeometry x="-830" y="-550" width="200" height="70" as="geometry" />
        </mxCell>
        <mxCell id="IoMad7SnP3hHhk6PhJhq-13" style="edgeStyle=orthogonalEdgeStyle;rounded=0;orthogonalLoop=1;jettySize=auto;html=1;entryX=0.5;entryY=0.1;entryDx=0;entryDy=0;entryPerimeter=0;" edge="1" parent="1" source="IoMad7SnP3hHhk6PhJhq-3" target="IoMad7SnP3hHhk6PhJhq-8">
          <mxGeometry relative="1" as="geometry">
            <mxPoint x="-732.19" y="-710" as="targetPoint" />
          </mxGeometry>
        </mxCell>
        <mxCell id="IoMad7SnP3hHhk6PhJhq-14" style="edgeStyle=orthogonalEdgeStyle;rounded=0;orthogonalLoop=1;jettySize=auto;html=1;" edge="1" parent="1" source="IoMad7SnP3hHhk6PhJhq-15" target="IoMad7SnP3hHhk6PhJhq-18">
          <mxGeometry relative="1" as="geometry" />
        </mxCell>
        <mxCell id="IoMad7SnP3hHhk6PhJhq-15" value="Submit Credit&lt;br&gt;instructions" style="shape=parallelogram;html=1;strokeWidth=2;perimeter=parallelogramPerimeter;whiteSpace=wrap;rounded=1;arcSize=12;size=0.23;" vertex="1" parent="1">
          <mxGeometry x="-796.25" y="-150" width="135" height="60" as="geometry" />
        </mxCell>
        <mxCell id="IoMad7SnP3hHhk6PhJhq-16" style="edgeStyle=orthogonalEdgeStyle;rounded=0;orthogonalLoop=1;jettySize=auto;html=1;entryX=0.811;entryY=-0.05;entryDx=0;entryDy=0;entryPerimeter=0;" edge="1" parent="1" source="IoMad7SnP3hHhk6PhJhq-18" target="IoMad7SnP3hHhk6PhJhq-39">
          <mxGeometry relative="1" as="geometry">
            <mxPoint x="-410" y="15.5" as="targetPoint" />
          </mxGeometry>
        </mxCell>
        <mxCell id="IoMad7SnP3hHhk6PhJhq-17" value="no" style="edgeLabel;html=1;align=center;verticalAlign=middle;resizable=0;points=[];" vertex="1" connectable="0" parent="IoMad7SnP3hHhk6PhJhq-16">
          <mxGeometry x="-0.7801" y="1" relative="1" as="geometry">
            <mxPoint x="-1" as="offset" />
          </mxGeometry>
        </mxCell>
        <mxCell id="IoMad7SnP3hHhk6PhJhq-48" value="" style="edgeStyle=orthogonalEdgeStyle;rounded=0;orthogonalLoop=1;jettySize=auto;html=1;" edge="1" parent="1" source="IoMad7SnP3hHhk6PhJhq-18" target="IoMad7SnP3hHhk6PhJhq-47">
          <mxGeometry relative="1" as="geometry" />
        </mxCell>
        <mxCell id="caKZfVU6SHT-7UYtDrou-1" value="yes" style="edgeLabel;html=1;align=center;verticalAlign=middle;resizable=0;points=[];" vertex="1" connectable="0" parent="IoMad7SnP3hHhk6PhJhq-48">
          <mxGeometry x="-0.2465" y="2" relative="1" as="geometry">
            <mxPoint y="1" as="offset" />
          </mxGeometry>
        </mxCell>
        <mxCell id="IoMad7SnP3hHhk6PhJhq-18" value="Check if Funding&amp;nbsp;&lt;br&gt;is required&lt;br&gt;i.e. Credits &amp;gt; Debits" style="strokeWidth=2;html=1;shape=mxgraph.flowchart.decision;whiteSpace=wrap;" vertex="1" parent="1">
          <mxGeometry x="-829.25" y="-39" width="200" height="109" as="geometry" />
        </mxCell>
        <mxCell id="IoMad7SnP3hHhk6PhJhq-19" value="" style="edgeStyle=orthogonalEdgeStyle;rounded=0;orthogonalLoop=1;jettySize=auto;html=1;" edge="1" parent="1" target="IoMad7SnP3hHhk6PhJhq-30">
          <mxGeometry relative="1" as="geometry">
            <mxPoint x="-999" y="373" as="targetPoint" />
            <Array as="points">
              <mxPoint x="-880" y="533" />
              <mxPoint x="-880" y="373" />
            </Array>
            <mxPoint x="-799.25" y="533" as="sourcePoint" />
          </mxGeometry>
        </mxCell>
        <mxCell id="IoMad7SnP3hHhk6PhJhq-20" value="no" style="edgeLabel;html=1;align=center;verticalAlign=middle;resizable=0;points=[];" vertex="1" connectable="0" parent="IoMad7SnP3hHhk6PhJhq-19">
          <mxGeometry x="-0.6127" y="-2" relative="1" as="geometry">
            <mxPoint y="-1" as="offset" />
          </mxGeometry>
        </mxCell>
        <mxCell id="IoMad7SnP3hHhk6PhJhq-21" style="edgeStyle=orthogonalEdgeStyle;rounded=0;orthogonalLoop=1;jettySize=auto;html=1;entryX=0.078;entryY=0.569;entryDx=0;entryDy=0;entryPerimeter=0;" edge="1" parent="1" source="IoMad7SnP3hHhk6PhJhq-23" target="IoMad7SnP3hHhk6PhJhq-39">
          <mxGeometry relative="1" as="geometry">
            <mxPoint x="-570.0000000000005" y="533" as="targetPoint" />
          </mxGeometry>
        </mxCell>
        <mxCell id="IoMad7SnP3hHhk6PhJhq-22" value="yes" style="edgeLabel;html=1;align=center;verticalAlign=middle;resizable=0;points=[];" vertex="1" connectable="0" parent="IoMad7SnP3hHhk6PhJhq-21">
          <mxGeometry x="-0.4369" y="-1" relative="1" as="geometry">
            <mxPoint as="offset" />
          </mxGeometry>
        </mxCell>
        <mxCell id="IoMad7SnP3hHhk6PhJhq-23" value="Check Funding&amp;nbsp;&lt;br&gt;Message&lt;br&gt;received" style="strokeWidth=2;html=1;shape=mxgraph.flowchart.decision;whiteSpace=wrap;" vertex="1" parent="1">
          <mxGeometry x="-799.25" y="483" width="142.5" height="100" as="geometry" />
        </mxCell>
        <mxCell id="IoMad7SnP3hHhk6PhJhq-24" value="Release (submit)&lt;br&gt;Debit instructions" style="shape=parallelogram;html=1;strokeWidth=2;perimeter=parallelogramPerimeter;whiteSpace=wrap;rounded=1;arcSize=12;size=0.23;" vertex="1" parent="1">
          <mxGeometry x="-249" y="638" width="250" height="100" as="geometry" />
        </mxCell>
        <mxCell id="IoMad7SnP3hHhk6PhJhq-25" value="End&lt;br&gt;&amp;nbsp;Status:Pass" style="strokeWidth=2;html=1;shape=mxgraph.flowchart.terminator;whiteSpace=wrap;" vertex="1" parent="1">
          <mxGeometry x="-182" y="883" width="116" height="60" as="geometry" />
        </mxCell>
        <mxCell id="IoMad7SnP3hHhk6PhJhq-26" value="End Status:FailedContinue" style="strokeWidth=2;html=1;shape=mxgraph.flowchart.terminator;whiteSpace=wrap;" vertex="1" parent="1">
          <mxGeometry x="98" y="878" width="130" height="60" as="geometry" />
        </mxCell>
        <mxCell id="IoMad7SnP3hHhk6PhJhq-27" value="" style="edgeStyle=orthogonalEdgeStyle;rounded=0;orthogonalLoop=1;jettySize=auto;html=1;" edge="1" parent="1" source="IoMad7SnP3hHhk6PhJhq-28" target="IoMad7SnP3hHhk6PhJhq-37">
          <mxGeometry relative="1" as="geometry" />
        </mxCell>
        <mxCell id="IoMad7SnP3hHhk6PhJhq-28" value="Separate &lt;br&gt;Credits from&amp;nbsp;Debits" style="shape=parallelogram;html=1;strokeWidth=2;perimeter=parallelogramPerimeter;whiteSpace=wrap;rounded=1;arcSize=12;size=0.23;" vertex="1" parent="1">
          <mxGeometry x="-815.25" y="-396" width="172" height="60" as="geometry" />
        </mxCell>
        <mxCell id="IoMad7SnP3hHhk6PhJhq-29" style="edgeStyle=orthogonalEdgeStyle;rounded=0;orthogonalLoop=1;jettySize=auto;html=1;" edge="1" parent="1" source="IoMad7SnP3hHhk6PhJhq-30" target="IoMad7SnP3hHhk6PhJhq-23">
          <mxGeometry relative="1" as="geometry" />
        </mxCell>
        <mxCell id="IoMad7SnP3hHhk6PhJhq-30" value="Wait for Funding &lt;br&gt;Message" style="shape=parallelogram;html=1;strokeWidth=2;perimeter=parallelogramPerimeter;whiteSpace=wrap;rounded=1;arcSize=12;size=0.23;" vertex="1" parent="1">
          <mxGeometry x="-805.25" y="358" width="154" height="54" as="geometry" />
        </mxCell>
        <mxCell id="IoMad7SnP3hHhk6PhJhq-33" value="" style="edgeStyle=orthogonalEdgeStyle;rounded=0;orthogonalLoop=1;jettySize=auto;html=1;" edge="1" parent="1" source="IoMad7SnP3hHhk6PhJhq-37" target="IoMad7SnP3hHhk6PhJhq-15">
          <mxGeometry relative="1" as="geometry" />
        </mxCell>
        <mxCell id="IoMad7SnP3hHhk6PhJhq-34" value="credits" style="edgeLabel;html=1;align=center;verticalAlign=middle;resizable=0;points=[];" vertex="1" connectable="0" parent="IoMad7SnP3hHhk6PhJhq-33">
          <mxGeometry x="-0.5383" y="1" relative="1" as="geometry">
            <mxPoint as="offset" />
          </mxGeometry>
        </mxCell>
        <mxCell id="IoMad7SnP3hHhk6PhJhq-35" value="" style="edgeStyle=orthogonalEdgeStyle;rounded=0;orthogonalLoop=1;jettySize=auto;html=1;entryX=0;entryY=0.333;entryDx=0;entryDy=0;entryPerimeter=0;" edge="1" parent="1" source="IoMad7SnP3hHhk6PhJhq-37" target="IoMad7SnP3hHhk6PhJhq-46">
          <mxGeometry relative="1" as="geometry">
            <mxPoint x="-330" y="-240" as="targetPoint" />
          </mxGeometry>
        </mxCell>
        <mxCell id="IoMad7SnP3hHhk6PhJhq-36" value="debits" style="edgeLabel;html=1;align=center;verticalAlign=middle;resizable=0;points=[];" vertex="1" connectable="0" parent="IoMad7SnP3hHhk6PhJhq-35">
          <mxGeometry x="-0.5885" relative="1" as="geometry">
            <mxPoint as="offset" />
          </mxGeometry>
        </mxCell>
        <mxCell id="IoMad7SnP3hHhk6PhJhq-37" value="Check&lt;br&gt;Credit&lt;br&gt;Instructions" style="strokeWidth=2;html=1;shape=mxgraph.flowchart.decision;whiteSpace=wrap;" vertex="1" parent="1">
          <mxGeometry x="-809" y="-280" width="160" height="80" as="geometry" />
        </mxCell>
        <mxCell id="IoMad7SnP3hHhk6PhJhq-38" value="" style="edgeStyle=orthogonalEdgeStyle;rounded=0;orthogonalLoop=1;jettySize=auto;html=1;" edge="1" parent="1" source="IoMad7SnP3hHhk6PhJhq-39" target="IoMad7SnP3hHhk6PhJhq-42">
          <mxGeometry relative="1" as="geometry" />
        </mxCell>
        <mxCell id="IoMad7SnP3hHhk6PhJhq-39" value="Wait for Credit&lt;br&gt;Payment Notifications" style="shape=parallelogram;html=1;strokeWidth=2;perimeter=parallelogramPerimeter;whiteSpace=wrap;rounded=1;arcSize=12;size=0.23;" vertex="1" parent="1">
          <mxGeometry x="-579" y="487" width="270" height="80" as="geometry" />
        </mxCell>
        <mxCell id="IoMad7SnP3hHhk6PhJhq-40" style="edgeStyle=orthogonalEdgeStyle;rounded=0;orthogonalLoop=1;jettySize=auto;html=1;entryX=0.063;entryY=0.994;entryDx=0;entryDy=0;exitX=0;exitY=0.5;exitDx=0;exitDy=0;entryPerimeter=0;" edge="1" parent="1" source="IoMad7SnP3hHhk6PhJhq-42" target="IoMad7SnP3hHhk6PhJhq-39">
          <mxGeometry relative="1" as="geometry">
            <Array as="points">
              <mxPoint x="-561" y="688" />
              <mxPoint x="-561" y="567" />
            </Array>
          </mxGeometry>
        </mxCell>
        <mxCell id="IoMad7SnP3hHhk6PhJhq-41" value="no" style="edgeLabel;html=1;align=center;verticalAlign=middle;resizable=0;points=[];" vertex="1" connectable="0" parent="IoMad7SnP3hHhk6PhJhq-40">
          <mxGeometry x="-0.7492" y="2" relative="1" as="geometry">
            <mxPoint x="1" y="-1" as="offset" />
          </mxGeometry>
        </mxCell>
        <mxCell id="IoMad7SnP3hHhk6PhJhq-42" value="Check All&lt;br style=&quot;border-color: var(--border-color);&quot;&gt;Credit Notifications&lt;br style=&quot;border-color: var(--border-color);&quot;&gt;Received" style="rhombus;whiteSpace=wrap;html=1;strokeWidth=2;rounded=1;arcSize=12;" vertex="1" parent="1">
          <mxGeometry x="-521.5" y="643" width="155" height="90" as="geometry" />
        </mxCell>
        <mxCell id="IoMad7SnP3hHhk6PhJhq-43" style="edgeStyle=orthogonalEdgeStyle;rounded=0;orthogonalLoop=1;jettySize=auto;html=1;" edge="1" parent="1" source="IoMad7SnP3hHhk6PhJhq-42" target="IoMad7SnP3hHhk6PhJhq-24">
          <mxGeometry relative="1" as="geometry" />
        </mxCell>
        <mxCell id="IoMad7SnP3hHhk6PhJhq-44" value="yes" style="edgeLabel;html=1;align=center;verticalAlign=middle;resizable=0;points=[];" vertex="1" connectable="0" parent="IoMad7SnP3hHhk6PhJhq-43">
          <mxGeometry x="-0.5629" y="3" relative="1" as="geometry">
            <mxPoint as="offset" />
          </mxGeometry>
        </mxCell>
        <mxCell id="IoMad7SnP3hHhk6PhJhq-45" style="edgeStyle=orthogonalEdgeStyle;rounded=0;orthogonalLoop=1;jettySize=auto;html=1;entryX=0.5;entryY=0;entryDx=0;entryDy=0;entryPerimeter=0;" edge="1" parent="1" source="IoMad7SnP3hHhk6PhJhq-24" target="IoMad7SnP3hHhk6PhJhq-25">
          <mxGeometry relative="1" as="geometry" />
        </mxCell>
        <mxCell id="IoMad7SnP3hHhk6PhJhq-46" value="Hold Debit&lt;br style=&quot;border-color: var(--border-color);&quot;&gt;Instructions" style="strokeWidth=2;html=1;shape=mxgraph.flowchart.delay;whiteSpace=wrap;" vertex="1" parent="1">
          <mxGeometry x="-256.25" y="-260" width="100" height="60" as="geometry" />
        </mxCell>
        <mxCell id="IoMad7SnP3hHhk6PhJhq-50" style="edgeStyle=orthogonalEdgeStyle;rounded=0;orthogonalLoop=1;jettySize=auto;html=1;entryX=0.367;entryY=-0.035;entryDx=0;entryDy=0;entryPerimeter=0;" edge="1" parent="1" source="IoMad7SnP3hHhk6PhJhq-47" target="IoMad7SnP3hHhk6PhJhq-39">
          <mxGeometry relative="1" as="geometry">
            <mxPoint x="-349.914691943128" y="217.79999999999995" as="targetPoint" />
          </mxGeometry>
        </mxCell>
        <mxCell id="IoMad7SnP3hHhk6PhJhq-51" value="yes" style="edgeLabel;html=1;align=center;verticalAlign=middle;resizable=0;points=[];" vertex="1" connectable="0" parent="IoMad7SnP3hHhk6PhJhq-50">
          <mxGeometry x="-0.8132" relative="1" as="geometry">
            <mxPoint as="offset" />
          </mxGeometry>
        </mxCell>
        <mxCell id="IoMad7SnP3hHhk6PhJhq-52" style="edgeStyle=orthogonalEdgeStyle;rounded=0;orthogonalLoop=1;jettySize=auto;html=1;entryX=0.5;entryY=0;entryDx=0;entryDy=0;" edge="1" parent="1" source="IoMad7SnP3hHhk6PhJhq-47" target="IoMad7SnP3hHhk6PhJhq-30">
          <mxGeometry relative="1" as="geometry" />
        </mxCell>
        <mxCell id="IoMad7SnP3hHhk6PhJhq-47" value="Apply Threshold?" style="rhombus;whiteSpace=wrap;html=1;strokeWidth=2;" vertex="1" parent="1">
          <mxGeometry x="-819" y="164.5" width="180" height="105.5" as="geometry" />
        </mxCell>
      </root>
    </mxGraphModel>
  </diagram>
</mxfile>
